<svg xmlns="http://www.w3.org/2000/svg" xmlns:xlink="http://www.w3.org/1999/xlink" preserveAspectRatio="xMidYMid" width="33" height="25" viewBox="0 0 33 25">
  <defs>
    <style>
      .cls-1 {
        fill: #fff;
      }

      .cls-1, .cls-3 {
        fill-rule: evenodd;
      }

      .cls-2 {
        filter: url(#color-overlay-1);
      }

      .cls-3 {
        fill: #b6b6b6;
      }
    </style>

    <filter id="color-overlay-1" filterUnits="userSpaceOnUse">
      <feFlood flood-color="#fff"/>
      <feComposite operator="in" in2="SourceGraphic"/>
      <feBlend in2="SourceGraphic" result="solidFill"/>
    </filter>
  </defs>
  <g>
    <path d="M1.500,-0.000 L23.500,-0.000 C24.328,-0.000 25.000,0.671 25.000,1.500 C25.000,2.328 24.328,3.000 23.500,3.000 L1.500,3.000 C0.672,3.000 -0.000,2.328 -0.000,1.500 C-0.000,0.671 0.672,-0.000 1.500,-0.000 Z" class="cls-1"/>
    <path d="M1.500,9.000 L17.500,9.000 C18.328,9.000 19.000,9.672 19.000,10.500 C19.000,11.328 18.328,12.000 17.500,12.000 L1.500,12.000 C0.672,12.000 -0.000,11.328 -0.000,10.500 C-0.000,9.672 0.672,9.000 1.500,9.000 Z" class="cls-1"/>
    <path d="M1.500,15.000 L11.500,15.000 C12.328,15.000 13.000,15.671 13.000,16.500 C13.000,17.328 12.328,18.000 11.500,18.000 L1.500,18.000 C0.672,18.000 -0.000,17.328 -0.000,16.500 C-0.000,15.671 0.672,15.000 1.500,15.000 Z" class="cls-1"/>
    <g class="cls-2">
      <path d="M18.000,16.000 L32.000,16.000 C32.552,16.000 33.000,16.448 33.000,17.000 C33.000,17.552 32.552,18.000 32.000,18.000 L18.000,18.000 C17.448,18.000 17.000,17.552 17.000,17.000 C17.000,16.448 17.448,16.000 18.000,16.000 Z" class="cls-3"/>
      <path d="M25.000,9.000 C25.552,9.000 26.000,9.448 26.000,10.000 L26.000,24.000 C26.000,24.552 25.552,25.000 25.000,25.000 C24.448,25.000 24.000,24.552 24.000,24.000 L24.000,10.000 C24.000,9.448 24.448,9.000 25.000,9.000 Z" class="cls-3"/>
    </g>
  </g>
</svg>
