<?xml version="1.0" encoding="utf-8"?>
<!-- Generator: Adobe Illustrator 19.2.0, SVG Export Plug-In . SVG Version: 6.00 Build 0)  -->
<svg version="1.1" id="Layer_1" xmlns="http://www.w3.org/2000/svg" xmlns:xlink="http://www.w3.org/1999/xlink" x="0px" y="0px"
	 viewBox="0 0 612 792" style="enable-background:new 0 0 612 792;" xml:space="preserve">
<style type="text/css">
	.st0{fill:#FFFFFF;}
</style>
<g>
	<path class="st0" d="M35,170.1h396.7c14.9,0,27,12.1,27,27c0,14.9-12.1,27-27,27H35c-14.9,0-27-12.1-27-27
		C8,182.2,20.1,170.1,35,170.1z"/>
	<path class="st0" d="M35,332.4h288.5c14.9,0,27,12.1,27,27c0,14.9-12.1,27-27,27H35c-14.9,0-27-12.1-27-27
		C8,344.5,20.1,332.4,35,332.4z"/>
	<path class="st0" d="M35,440.6h180.3c14.9,0,27,12.1,27,27c0,14.9-12.1,27-27,27H35c-14.9,0-27-12.1-27-27
		C8,452.7,20.1,440.6,35,440.6z"/>
	<g>
		<path class="st0" d="M332.5,458.6H585c10,0,18,8.1,18,18s-8.1,18-18,18H332.5c-10,0-18-8.1-18-18S322.6,458.6,332.5,458.6z"/>
		<path class="st0" d="M458.8,332.4c10,0,18,8.1,18,18v252.4c0,10-8.1,18-18,18s-18-8.1-18-18V350.4
			C440.7,340.5,448.8,332.4,458.8,332.4z"/>
	</g>
</g>
</svg>