<svg id="_1" data-name="1" xmlns="http://www.w3.org/2000/svg" viewBox="0 0 689.12 247.82"><title>brand</title><path d="M254.42,224.89l8.15,5.17-2.78-1.76h-5.37v-3.41h0Zm9,5.69L275.12,238l-0.36-.23H254.42v-7.23h9Zm11.74,9.52v7.24h-20.7V240.1h20.7Zm0,9.51v7.24h-20.7v-7.24h20.7Zm0,9.52v7.23h-20.7v-7.23h20.7Zm0,9.51V281.1h-20.7V268.64h20.7Z" transform="translate(-90.05 -170)" style="fill:#010003;fill-rule:evenodd"/><path d="M509.41,214.14l7,4.44h-7v-4.44h0Zm11.66,7.4,15.29,9.71-0.47-.3H509.41v-9.41h11.66Zm15.29,12.39v9.42H509.41v-9.42h26.95Zm0,12.38v9.43H509.41v-9.43h26.95Zm0,12.39v9.41H509.41V258.7h26.95Zm0,12.38v12.73l-26.95-1.39V271.09h26.95Z" transform="translate(-90.05 -170)" style="fill:#010003;fill-rule:evenodd"/><path d="M143.67,213.54l9.45,5.25h-9.45v-5.25h0Zm13.54,7.52,13,7.24H143.67v-7.24h13.54ZM171,230.58v7.23H143.67v-7.23H171Zm0,9.52v7.24H143.67V240.1H171Zm0,9.51v7.24H143.67v-7.24H171Zm0,9.52v7.23H143.67v-7.23H171Zm0,9.51v9.76H143.67v-9.76H171Z" transform="translate(-90.05 -170)" style="fill:#010003;fill-rule:evenodd"/><path d="M136.46,183.48L96.8,205.72v3.34h39.66V183.48h0ZM96.8,211.35v7.44h39.66v-7.44H96.8Zm0,9.71v7.24h39.66v-7.24H96.8Zm0,9.52v7.23h39.66v-7.23H96.8Zm0,9.52v7.24h39.66V240.1H96.8Zm0,9.51v7.24h39.66v-7.24H96.8Zm0,9.52v7.23h39.66v-7.23H96.8Zm0,9.51v10h39.66v-10H96.8Z" transform="translate(-90.05 -170)" style="fill:#010003;fill-rule:evenodd"/><path d="M90.12,413.35s0,0.09,0,.13c0,0.81,0,1.64.05,2.46l-0.12-.17c0,0.68.08,1.37,0.1,2.06h689v-4.47h-689Z" transform="translate(-90.05 -170)" style="fill:#010003;fill-rule:evenodd"/><path d="M164,371.9c0,3.75-.37,6.5-1.15,8.24q-2,4.48-8,4.49a11.9,11.9,0,0,1-6.48-1.68c-1.79-1.12-3.73-3.86-5.86-8.17l-31.17-63L111,383.39h-12V308.76c0-4.16.46-7.19,1.41-9.1,1.53-3.25,4.52-4.87,9-4.87a10.16,10.16,0,0,1,7.88,3.37q2.29,2.5,5.73,9.49l28.62,58.52L152,296h12V371.9h0Zm64.67-12.45h0A26.78,26.78,0,0,1,223,374a26,26,0,0,1-8,6.65,24.67,24.67,0,0,1-6.86,2.66,33.33,33.33,0,0,1-7.65.88,28.9,28.9,0,0,1-12.6-2.89,26.88,26.88,0,0,1-15.42-24.85,26.66,26.66,0,0,1,8-19.8,27.32,27.32,0,0,1,20-7.93,29,29,0,0,1,15.31,4.21,27.67,27.67,0,0,1,10.81,12.66l-36.46,20-4.05-7.77,26.66-14.64a14.58,14.58,0,0,0-6-4,20.28,20.28,0,0,0-6.53-1.11,16.78,16.78,0,0,0-12.76,5.16q-4.9,5.17-4.9,13.25a19.52,19.52,0,0,0,2.25,9.54,16.56,16.56,0,0,0,5.85,6.32,17.23,17.23,0,0,0,4.5,1.9,19.81,19.81,0,0,0,5.07.66,27.18,27.18,0,0,0,5.47-.5,16.76,16.76,0,0,0,4.78-1.83,16.7,16.7,0,0,0,8.11-14.31l10,1.22h0ZM248,317.24h0a6,6,0,0,1-1.23,3.8,5.69,5.69,0,0,1-4.73,2.13,5.38,5.38,0,0,1-4.51-1.86,6.36,6.36,0,0,1-1.47-4.07,5.88,5.88,0,0,1,1.25-3.8,5.68,5.68,0,0,1,4.73-2.13,5.38,5.38,0,0,1,4.5,1.85,6.43,6.43,0,0,1,1.46,4.09h0Zm-1,65.85h-9.9V329.85H247v53.24h0Zm65.38-5.15h0A47.16,47.16,0,0,1,311,390.39a24.89,24.89,0,0,1-14.07,15.77,32.33,32.33,0,0,1-12.71,2.33,51.82,51.82,0,0,1-7.6-.61,68.56,68.56,0,0,1-10.3-2.49l2.37-9c3.07,0.86,5.83,1.53,8.28,2a34,34,0,0,0,6.69.75c5.85,0,10.32-1.32,13.39-4,3.61-3.13,5.4-8.08,5.4-14.91V361.94a40.58,40.58,0,0,0-1.24-11.46,16.91,16.91,0,0,0-9.12-10.77,18.27,18.27,0,0,0-7.76-1.67A18.54,18.54,0,0,0,271,343.26q-5.41,5.22-5.4,13.65a18.41,18.41,0,0,0,4.62,12.87q4.6,5.11,12.59,5.1a22.05,22.05,0,0,0,15.64-6V379.1a23.94,23.94,0,0,1-14.74,5.09,29.23,29.23,0,0,1-18.9-6.32q-9.35-7.43-9.35-21,0-12.32,8.5-20.25a28.89,28.89,0,0,1,20.43-7.93A31.35,31.35,0,0,1,295,330.51a22.89,22.89,0,0,1,11.71,9.11q5.63,8.43,5.62,22.34v16h0Zm55.15,5.15h-9.89V354.47c0-5.33-1.1-9.4-3.27-12.2s-5.33-4.22-9.45-4.22-7.36,1.4-9.68,4.22q-3.94,4.78-3.94,13.65v27.18h-9.9V305.44h9.9v29.17a19.22,19.22,0,0,1,6.86-4.55,21.14,21.14,0,0,1,7.43-1.33,32.35,32.35,0,0,1,6.13.5,17.42,17.42,0,0,1,5.12,1.94,18.71,18.71,0,0,1,9.12,10.54,38.26,38.26,0,0,1,1.57,12.2v29.18h0ZM433,355.91h0a28.14,28.14,0,0,1-7.22,19.31q-8,9-21.26,9A28.73,28.73,0,0,1,394,382.37a26.84,26.84,0,0,1-8-4.83,26.45,26.45,0,0,1-8.33-14.3,67.85,67.85,0,0,1-1.13-14.32V305.44h9.89v46.15a37.78,37.78,0,0,0,1.47,11.65,16.15,16.15,0,0,0,9.9,10.43,19.88,19.88,0,0,0,6.75,1.22,17.73,17.73,0,0,0,13.17-5.21,18.09,18.09,0,0,0,5.18-13.3A18.38,18.38,0,0,0,418,343.21q-4.91-5.16-13.23-5.16a23,23,0,0,0-8.33,1.56,32,32,0,0,0-6,3.1V332.5a32.81,32.81,0,0,1,14.41-3.77,37.08,37.08,0,0,1,7.1.61,26.83,26.83,0,0,1,17.1,12.09A27,27,0,0,1,433,355.91h0Zm59.74-.49h0a27.06,27.06,0,0,1-7.52,19.26,24.94,24.94,0,0,1-36.49,0,28.42,28.42,0,0,1,0-38.5,24.93,24.93,0,0,1,36.49,0,27,27,0,0,1,7.52,19.24h0Zm-9.65,0h0a17,17,0,0,0-4.5-12.22,16.53,16.53,0,0,0-23.18,0c-3,3.12-4.54,7.22-4.54,12.27s1.51,9.15,4.45,12.29a16.78,16.78,0,0,0,23.32,0c3-3.14,4.45-7.22,4.45-12.29h0Zm46-17.38h-1.35c-5,0-8.78,1.59-11.27,4.77-2.7,3.47-4.05,8.48-4.05,15v25.3h-9.88V329.85H512v6.09a15.31,15.31,0,0,1,7.65-6.09,22.73,22.73,0,0,1,7.75-1.12h1.71v9.32Z" transform="translate(-90.05 -170)" style="fill:#010003;fill-rule:evenodd"/><path d="M601.52,385.38H589.31V349.27H549.83v36.11h-12.2v-79.5h12.2v33.39h39.48V305.87h12.21v79.5h0ZM658.29,356h0a27.55,27.55,0,0,1-7.19,19.18,23.15,23.15,0,0,1-34.83,0,29.12,29.12,0,0,1,0-38.35,23.13,23.13,0,0,1,34.83,0A27.45,27.45,0,0,1,658.29,356h0Zm-9.23,0h0q0-7.43-4.27-12.18a15.38,15.38,0,0,0-22.17,0c-2.87,3.11-4.32,7.2-4.32,12.22s1.41,9.11,4.22,12.24a15.61,15.61,0,0,0,22.3,0c2.82-3.13,4.23-7.2,4.23-12.24h0Zm63.53,0h0a27.58,27.58,0,0,1-7.19,19.18,23.16,23.16,0,0,1-34.84,0,29.16,29.16,0,0,1,0-38.35,23.14,23.14,0,0,1,34.84,0A27.49,27.49,0,0,1,712.59,356h0Zm-9.24,0h0q0-7.43-4.27-12.18A14.23,14.23,0,0,0,688,339.12a14.43,14.43,0,0,0-11.09,4.7c-2.86,3.11-4.3,7.2-4.3,12.22s1.41,9.11,4.22,12.24a15.61,15.61,0,0,0,22.3,0c2.82-3.13,4.22-7.2,4.22-12.24h0Zm75.8-3.31h0q0,14.29-8.4,23.14t-22.67,8.86q-14.7,0-23.58-9.15a27.94,27.94,0,0,1-8-20,26.39,26.39,0,0,1,4.35-14.92,28.45,28.45,0,0,1,11.87-10.12,30.6,30.6,0,0,1,7.14-2.22,43.29,43.29,0,0,1,7.94-.75,35.54,35.54,0,0,1,7.37.87,37.74,37.74,0,0,1,8.46,3V342a39.64,39.64,0,0,0-6.62-3.08,26.57,26.57,0,0,0-9-1.71,27.77,27.77,0,0,0-5.84.58,17.75,17.75,0,0,0-5.37,2,18.17,18.17,0,0,0-6.5,6.39,18.48,18.48,0,0,0-2.62,9.83,17.9,17.9,0,0,0,5.76,13.71c3.79,3.58,8.76,5.37,14.84,5.37a23.5,23.5,0,0,0,4.65-.46,16.15,16.15,0,0,0,4.32-1.47,18.21,18.21,0,0,0,9.2-10.53,28.88,28.88,0,0,0,1.65-9.93V303.59h11v49.14Z" transform="translate(-90.05 -170)" style="fill:#010003;fill-rule:evenodd"/><path d="M247.35,211.35v9.71h-30v7.24h30v-9.51h-30v-7.44h30Zm0,19.23v7.23h-30v-7.23h30Zm0,9.52v7.24h-30V240.1h30Zm0,9.51v7.24h-30v-7.24h30Zm0,9.52v7.23h-30v-7.23h30Zm0,9.51V278.7h-30V268.64h30Z" transform="translate(-90.05 -170)" style="fill:#010003;fill-rule:evenodd"/><path d="M328.2,175.63l54.62,0V180H328.2v-4.37h0Zm54.62,6.64v7.24H328.2v-7.24h54.62Zm0,9.52V199H328.2v-7.23h54.62Zm0,9.51v7.76H328.2V201.3h54.62Zm0,10v7.44H328.2v-7.44h54.62Zm0,9.71v7.24H328.2v-7.24h54.62Zm0,9.52v7.23H328.2v-7.23h54.62Zm0,9.52v7.24H328.2V240.1h54.62Zm0,9.51v7.24H328.2v-7.24h54.62Zm0,9.52v7.23H328.2v-7.23h54.62Zm0,9.51v14.83H328.2V268.64h54.62ZM467,216.21l-3.78,2.58H467v-2.58h0Zm-7.11,4.86-10.6,7.24h17.73v2.28H446l-0.57.39v6.84h21.64v2.29H445.45v7.24H467.1v2.27H445.46v7.24h21.64v2.28H445.48v7.23h21.64v2.28H445.5l0,10.48,21.64-.06-0.11-59v1h-7.12Zm-16.19-14.22-3.07,2.23h3.05v-2.23h0Zm-5.87,4.26L421,223.37l0,4.93h22.68l0-7.24H424.15l3.13-2.27h16.39l0-7.44-5.85-.25h0Zm-16.93,17.8,0,8.91h22.67l0-7.23H420.93V228.9h0ZM420.88,239l0,8.37h22.67l0-7.24H420.88V239h0Zm-0.05,9.46,0,8.42h22.67l0-7.24-22.66-1.18h0Zm-0.05,9.84-0.11,19.88,22.66,0.19,0.06-9.71H420.72v-2.28H443.4l0-7.23H420.77v-0.85h0Zm-1.87-70.34-2.16,1.58h2.16v-1.58h0Zm-5.27,3.86L403.77,199h15.14v-7.23h-5.27Zm-13,9.51-10.39,7.61v0.15h28.65V201.3H400.65Zm-10.39,10v7.44h28.65v-7.44H390.26Zm0,9.71v7.24h28.65v-7.24H390.26Zm0,9.52v7.23h28.65v-7.23H390.26Zm0,9.52v7.24h28.65V240.1H390.26Zm0,9.51v7.24h28.65v-7.24H390.26Zm0,9.52v7.23h28.65v-7.23H390.26Zm0,9.51v9h28.65v-9H390.26Z" transform="translate(-90.05 -170)" style="fill:#010003;fill-rule:evenodd"/><path d="M281.74,262.36H318.1v15.56H281.74V262.36h0Zm21,6v4.79h11.89v-4.79H302.77Zm-5.42,0H285.48v4.77h11.88V268.4Z" transform="translate(-90.05 -170)" style="fill:#010003;fill-rule:evenodd"/><polygon points="202.41 92.36 195.04 92.36 202.51 87.75 202.41 92.36" style="fill:#010003;fill-rule:evenodd"/><polygon points="212.49 92.36 205.12 92.36 212.58 87.75 212.49 92.36" style="fill:#010003;fill-rule:evenodd"/><polygon points="224.05 92.36 216.68 92.36 224.14 87.75 224.05 92.36" style="fill:#010003;fill-rule:evenodd"/><path d="M486.15,275.33h0Z" transform="translate(-90.05 -170)" style="fill:#010003;fill-rule:evenodd;opacity:0.17"/><polygon points="689.12 113.82 0.56 113.81 0.34 106.38 689.08 106.38 689.12 113.82" style="fill:#010003;fill-rule:evenodd"/><path d="M374.49,171l0.76-1Z" transform="translate(-90.05 -170)" style="fill:#010003;fill-rule:evenodd"/><polygon points="90.94 98.07 104.8 85.33 104.8 79.32 84.43 98.07 90.94 98.07" style="fill:#010003;fill-rule:evenodd"/><polygon points="90.23 92.75 95.32 87.99 95.31 85.1 90.23 85.1 90.23 92.75" style="fill:#010003;fill-rule:evenodd"/><polygon points="118.66 98.07 104.8 85.33 104.8 79.32 125.16 98.07 118.66 98.07" style="fill:#010003;fill-rule:evenodd"/><polygon points="90.2 94.36 95.28 87.67 95.28 83.59 90.2 83.59 90.2 94.36" style="fill:#010003;fill-rule:evenodd"/><polygon points="118.66 98.07 104.8 85.33 104.8 79.32 125.16 98.07 118.66 98.07" style="fill:#010003;fill-rule:evenodd"/><polygon points="90.9 110.03 118.66 110.03 118.66 92.29 104.28 84.3 90.9 92.29 90.9 110.03" style="fill:#010003;fill-rule:evenodd"/><path d="M466.88,265.75l4.47,0c0.05,7.75.08,13.21,0.08,13.21a1.88,1.88,0,0,0,1.73,1.91c4.49,0,8.76.08,13,.08h0.13c4.22,0,8.49,0,13-.08a1.9,1.9,0,0,0,1.73-1.91s0-5.46.08-13.21l4.44,0-19.23-18.11v0a0.11,0.11,0,0,0-.07,0,0.1,0.1,0,0,0-.06,0v0l-19.26,18.11h0Zm19.4,11.62h-0.13a53.61,53.61,0,0,1-9.87-.22c-0.77-.18-0.42-1.87-0.47-2.6-0.09-3.67,0-7.32,0-11l10.39-11,10.4,11c0,3.67.07,7.33,0,11-0.05.73,0.28,2.41-.48,2.6A53.66,53.66,0,0,1,486.27,277.37Z" transform="translate(-90.05 -170)" style="fill:#010003;fill-rule:evenodd"/><path d="M310.95,312.19a7.77,7.77,0,0,1-1.51,4.47,8,8,0,0,1-2.4,2.14,8.13,8.13,0,0,1-2.12.93,11.55,11.55,0,0,1-2.43.4,9.82,9.82,0,0,1-4.05-.65,8.69,8.69,0,0,1-3.75-2.81,7.87,7.87,0,0,1-1.6-4.42,7.73,7.73,0,0,1,2.17-6.11,8.85,8.85,0,0,1,6.18-2.72,9.66,9.66,0,0,1,4.94,1,8.6,8.6,0,0,1,3.65,3.62l-11.17,6.64-1.43-2.27,8.18-4.86a4.87,4.87,0,0,0-2-1.11,6.73,6.73,0,0,0-2.08-.23,5.28,5.28,0,0,0-5.26,5.85,5.77,5.77,0,0,0,.9,2.84,5.15,5.15,0,0,0,2,1.8,5.9,5.9,0,0,0,1.46.49,6.24,6.24,0,0,0,1.63.12,8.79,8.79,0,0,0,1.71-.25,5.33,5.33,0,0,0,1.48-.64,4.77,4.77,0,0,0,1.73-1.89,4.57,4.57,0,0,0,.56-2.56Z" transform="translate(-90.05 -170)" style="fill:#010003;fill-rule:evenodd"/><path d="M290.61,320.18h-3.84v-9.85a6.17,6.17,0,0,0-1.27-4.2,4.61,4.61,0,0,0-3.67-1.46,4.92,4.92,0,0,0-3.75,1.46,6.64,6.64,0,0,0-1.52,4.69v9.35h-3.84V293.46h3.84v10a7.72,7.72,0,0,1,2.67-1.57,9.08,9.08,0,0,1,2.87-.46,15.11,15.11,0,0,1,2.38.17,7.32,7.32,0,0,1,2,.68,6.73,6.73,0,0,1,3.54,3.62,11.86,11.86,0,0,1,.6,4.2v10Z" transform="translate(-90.05 -170)" style="fill:#010003;fill-rule:evenodd"/><polygon points="158.98 127.31 164.44 127.31 164.44 150.15 169.67 150.15 169.67 127.31 175.13 127.31 175.13 123.5 158.98 123.5 158.98 127.31" style="fill:#010003;fill-rule:evenodd"/><rect x="154.88" y="123.23" width="23.33" height="4.12" style="fill:#010003"/></svg>