<?xml version="1.0" encoding="utf-8"?>
<!-- Generator: Adobe Illustrator 19.2.0, SVG Export Plug-In . SVG Version: 6.00 Build 0)  -->
<svg version="1.1" id="Layer_1" xmlns="http://www.w3.org/2000/svg" xmlns:xlink="http://www.w3.org/1999/xlink" x="0px" y="0px"
	 viewBox="0 0 24 24" style="enable-background:new 0 0 24 24;" xml:space="preserve">
<path d="M18,15.9c-0.2,0.3-0.6,0.5-1,0.5c-0.7,0-1.3-0.5-1.3-1.1v-4.4l0,0l0,0c0-0.6,0.6-1.1,1.3-1.1c0.1,0,0.1,0,0.2,0
	c-0.5-2.6-2.7-4.5-5.2-4.5S7.3,7.1,6.8,9.8c0.1,0,0.1,0,0.3,0c0.7,0,1.3,0.4,1.3,1.1l0,0l0,0v4.4c0,0.6-0.6,1.1-1.3,1.1
	c-0.1,0-0.2,0-0.4-0.1v4.2c0,0.1-0.1,0.3-0.3,0.3c-0.1,0-0.3-0.1-0.3-0.3v-4.5C6,16,6,16,5.9,15.9c-1.3-0.1-2.1-1.3-2.1-2.8
	c0-0.9,0.2-1.6,0.7-2.1l0,0c0-4.4,3.2-7.8,7.4-7.8s7.4,3.4,7.4,7.7c0.4,0.5,0.7,1.3,0.7,2.1C20.1,14.7,19.3,15.8,18,15.9z
	 M16.9,10.5c-0.3,0-0.5,0.1-0.5,0.4l0,0l0,0v4.4c0,0.2,0.2,0.4,0.5,0.4c0.3,0,0.5-0.1,0.5-0.4l0,0V11l0,0l0,0
	C17.4,10.7,17.2,10.5,16.9,10.5z M7.6,15.3v-4.4l0,0l0,0c0-0.2-0.2-0.4-0.5-0.4c-0.3,0-0.5,0.1-0.5,0.4l0,0l0,0v4.3l0,0
	c0,0.2,0.2,0.4,0.5,0.4C7.3,15.6,7.6,15.6,7.6,15.3z M4.6,13.1c0,0.4,0.1,1.6,1.1,2.1v-4.1C4.7,11.4,4.6,12.7,4.6,13.1z M11.9,3.9
	c-3.5,0-6.3,2.8-6.6,6.5c0.2-0.1,0.4-0.1,0.7-0.2c0,0,0.1,0,0.1-0.1C6.5,7,9,4.8,11.9,4.8s5.4,2.3,5.8,5.3c0.1,0.1,0.1,0.1,0.2,0.2
	c0.2,0,0.4,0.1,0.6,0.1C18.3,6.7,15.5,3.9,11.9,3.9z M18.3,11.1v4.1c1-0.4,1.1-1.6,1.1-2.1C19.3,12.7,19.2,11.4,18.3,11.1z"/>
</svg>
