<?xml version="1.0" encoding="utf-8"?>

<svg version="1.1" id="Capa_1" xmlns="http://www.w3.org/2000/svg" xmlns:xlink="http://www.w3.org/1999/xlink" x="0px" y="0px"
	 viewBox="0 0 512 512" style="enable-background:new 0 0 512 512;" xml:space="preserve">
<style type="text/css">
	.st0{fill:#FFF;}
</style>
<g>
	<g id="_x33_58._Pause">
		<g>
			<path class="st0" d="M204.8,179.2c-14.1,0-25.6,11.5-25.6,25.6v102.4c0,14.1,11.5,25.6,25.6,25.6s25.6-11.5,25.6-25.6V204.8
				C230.4,190.7,218.9,179.2,204.8,179.2z M477.7,128C407,5.6,250.4-36.4,128,34.3C5.6,105-36.4,261.6,34.3,384
				C105,506.4,261.6,548.4,384,477.7C506.4,407,548.4,250.4,477.7,128z M358.4,433.3c-97.9,56.6-223.2,23-279.7-74.9
				c-56.6-97.9-23-223.2,74.9-279.7c97.9-56.6,223.2-23,279.7,74.9C489.9,251.6,456.3,376.8,358.4,433.3z M307.2,179.2
				c-14.1,0-25.6,11.5-25.6,25.6v102.4c0,14.1,11.5,25.6,25.6,25.6c14.1,0,25.6-11.5,25.6-25.6V204.8
				C332.8,190.7,321.3,179.2,307.2,179.2z"/>
		</g>
	</g>
</g>
</svg>
