<?xml version="1.0" encoding="utf-8"?>
<!-- Generator: Adobe Illustrator 19.2.0, SVG Export Plug-In . SVG Version: 6.00 Build 0)  -->
<svg version="1.1" id="Layer_1" xmlns="http://www.w3.org/2000/svg" xmlns:xlink="http://www.w3.org/1999/xlink" x="0px" y="0px"
	 viewBox="0 0 24 24" style="enable-background:new 0 0 24 24;" xml:space="preserve">
<path d="M22.4,18.4V20h-1.6v1.6H3.2V20H1.6v-1.6H0V5.6h1.6V4h1.6V2.4h17.6V4h1.6v1.6H24v12.8H22.4z M1.6,6.4H0.8v11.2h0.8V6.4z
	 M3.2,4.8H2.4v0.8v12.8v0.8h0.8V4.8z M20,20V4V3.2H4V4v16v0.8h16V20z M21.6,18.4V5.6V4.8h-0.8v14.4h0.8V18.4z M23.2,6.4h-0.8v11.2
	h0.8V6.4z M7.8,14c0.7,0,1.3,0.3,1.8,0.7V9.2V8.1V6.8c0-0.2,0.1-0.4,0.3-0.4l7.6-1.2c0.1,0,0.2,0,0.3,0.1C17.9,5.4,18,5.5,18,5.6V6
	v2v6c0,1.3-1.2,2.4-2.6,2.4s-2.6-1.1-2.6-2.4s1.2-2.4,2.6-2.4c0.7,0,1.3,0.3,1.8,0.7V8.5l-6.8,1.1v6.9c0,0,0,0,0,0
	c0,1.3-1.2,2.3-2.6,2.3c-1.4,0-2.6-1.1-2.6-2.4S6.4,14,7.8,14z M15.4,12.4c-1,0-1.8,0.7-1.8,1.6s0.8,1.6,1.8,1.6s1.8-0.7,1.8-1.6
	S16.4,12.4,15.4,12.4z M10.4,8.1v0.6l6.8-1.1V6.1l-6.8,1.1V8.1z M7.8,18c1,0,1.8-0.7,1.8-1.6s-0.8-1.6-1.8-1.6S6,15.5,6,16.4
	S6.8,18,7.8,18z" fill="#85A43E" />
</svg>


