<?xml version="1.0" encoding="utf-8"?>
<!-- Generator: Adobe Illustrator 19.2.0, SVG Export Plug-In . SVG Version: 6.00 Build 0)  -->
<svg version="1.1" id="Layer_1" xmlns="http://www.w3.org/2000/svg" xmlns:xlink="http://www.w3.org/1999/xlink" x="0px" y="0px"
	 viewBox="0 0 24 24" style="enable-background:new 0 0 24 24;" xml:space="preserve">
<path d="M12,24C5.4,24,0,18.6,0,12S5.4,0,12,0s12,5.4,12,12C24,18.6,18.6,24,12,24z M12,1.4C6.1,1.4,1.4,6.1,1.4,12
	c0,5.9,4.8,10.6,10.6,10.6c5.9,0,10.6-4.8,10.6-10.6C22.6,6.1,17.9,1.4,12,1.4z M16.7,12.7h-4v4c0,0.4-0.3,0.7-0.7,0.7
	c-0.4,0-0.7-0.3-0.7-0.7v-4h-4c-0.4,0-0.7-0.3-0.7-0.7c0-0.4,0.3-0.7,0.7-0.7h4v-4c0-0.4,0.3-0.7,0.7-0.7s0.7,0.3,0.7,0.7v4h4
	c0.4,0,0.7,0.3,0.7,0.7C17.4,12.4,17.1,12.7,16.7,12.7z" style="fill:#85A43E"/>
</svg>
