<?xml version="1.0" encoding="utf-8"?>
<svg version="1.1" id="Layer_1" xmlns="http://www.w3.org/2000/svg" xmlns:xlink="http://www.w3.org/1999/xlink" x="0px" y="0px"
	 viewBox="0 0 512 512" style="enable-background:new 0 0 512 512;" xml:space="preserve">
<style type="text/css">
	.st0{fill:#AED741;}
	.st1{fill:#FFFAFA;}
	.st2{font-family:'Helvetica';}
	.st3{font-size:236.0865px;}
</style>
<path class="st0" d="M280.7,103c-111.2,0-201.6,88.5-201.6,197.4v0.6l-39.9-58.8c-3.9-5.8-11.9-7.4-17.8-3.6
	c-5.8,3.8-7.6,11.7-3.6,17.4l58,85.4c2.1,3,5.5,5,9.1,5.5c0.5,0.1,1,0.1,1.6,0.1c3.1,0,6.2-1.2,8.6-3.3l86.8-72.8
	c5.2-4.6-0.6-10.7-5.4-16c-4.7-5.1-12.9-5.6-18.2-0.9l-53.4,47.3l10.5-1c0-95,63.8-159.4,160.7-159.4s164.5,64.5,164.5,159.5
	s-65,163.8-162,163.8c-46.9,0-82.5-15.5-115.7-47.9c-5-4.9-19.6,1.1-24.7,6c-5,4.9-5,12.8,0,17.8c38.1,37.3,88.7,57.8,142.5,57.8
	c111.2-0.2,201.7-88.6,201.7-197.5S391.8,103,280.7,103z"/>
<ellipse class="st0" cx="230.3" cy="133.2" rx="137.3" ry="128.1"/>
<text transform="matrix(1 0 0 1 156.4341 221.1816)" class="st1 st2 st3">1</text>
</svg>
