<?xml version="1.0" encoding="utf-8"?>
<!-- Generator: Adobe Illustrator 19.2.0, SVG Export Plug-In . SVG Version: 6.00 Build 0)  -->
<svg version="1.1" id="Capa_1" xmlns="http://www.w3.org/2000/svg" xmlns:xlink="http://www.w3.org/1999/xlink" x="0px" y="0px"
	 viewBox="0 0 50 50" style="enable-background:new 0 0 50 50;" xml:space="preserve">
<style type="text/css">
	.st0{fill:#FFFFFF;}
</style>
<g>
	<g id="_x33_44._Playlist">
		<g>
			<path class="st0" d="M4.8,23.8H19V19H4.8c-1.3,0-2.4,1.1-2.4,2.4C2.4,22.7,3.4,23.8,4.8,23.8z M4.8,14.3H19v0l20.4-4.8H4.8
				c-1.3,0-2.4,1.1-2.4,2.4v0C2.4,13.2,3.4,14.3,4.8,14.3z M4.8,4.8h35.7c1.3,0,2.4-1.1,2.4-2.4c0-1.3-1.1-2.4-2.4-2.4H4.8
				C3.4,0,2.4,1.1,2.4,2.4C2.4,3.7,3.4,4.8,4.8,4.8z M4.8,33.3H19v-4.8H4.8c-1.3,0-2.4,1.1-2.4,2.4v0C2.4,32.3,3.4,33.3,4.8,33.3z
				 M42.9,15.2l-14.5,2.9c-2.6,0.5-4.7,3.1-4.7,5.7v14.4c-0.4-0.1-0.8-0.1-1.2-0.1c-3.3,0-6,2.7-6,6c0,3.3,2.7,6,6,6
				c3.3,0,6-2.7,6-6c0-0.3,0-0.6-0.1-0.9l0.1,0V26.5l14.3-2.7v9.6c-0.4-0.1-0.8-0.1-1.2-0.1c-3.3,0-6,2.7-6,6c0,3.3,2.7,6,6,6
				c3.2,0,5.8-2.5,5.9-5.7l0,0V19C47.6,16.4,45.5,14.7,42.9,15.2z M2.4,40.5c0,1.3,1.1,2.4,2.4,2.4H12c0.2-1.7,0.8-3.4,1.7-4.8h-9
				C3.4,38.1,2.4,39.2,2.4,40.5z"/>
		</g>
	</g>
</g>
</svg>
