<svg version="1.1"  xmlns="http://www.w3.org/2000/svg" xmlns:xlink="http://www.w3.org/1999/xlink" x="0px" y="0px"
	 viewBox="0 0 24 24" style="enable-background:new 0 0 24 24;" xml:space="preserve">

<path  d="M23.7,22.9H11.6c-0.3,0-0.5-0.2-0.5-0.5v-9.7c0-0.3,0.2-0.5,0.5-0.5h12.1c0.3,0,0.5,0.2,0.5,0.5v9.7
	C24.1,22.7,23.9,22.9,23.7,22.9z M23.2,13.2H12.1V22h11.1V13.2z M15.5,15.1c0.1-0.1,0.3-0.1,0.5,0l3.7,2.1c0.1,0.1,0.2,0.2,0.2,0.4
	c0,0.2-0.1,0.3-0.2,0.4L16,20.1c-0.1,0-0.1,0.1-0.2,0.1c-0.1,0-0.2,0-0.2-0.1c-0.1-0.1-0.2-0.2-0.2-0.4v-4.2
	C15.3,15.3,15.4,15.2,15.5,15.1z M16.2,18.9l2.3-1.3l-2.3-1.3V18.9z M18.6,10.8h-2.9c0,0.1,0,0.2,0,0.3c0,0.3-0.2,0.5-0.5,0.5
	s-0.5-0.2-0.5-0.5c0-0.1,0-0.2,0-0.3h-5v8.8c0.3,0,0.5,0.2,0.5,0.5s-0.2,0.5-0.5,0.5c-5.4,0-9.7-4.4-9.7-9.7c0-5.1,3.9-9.2,8.8-9.7
	v0h0.9c5.4,0,9.7,4.4,9.7,9.7h-0.3H18.6z M6.5,19c-1.6-1.7-2.7-4.6-2.7-7.9c0-0.1,0-0.2,0-0.3H0.9C0.9,14.6,3.2,17.7,6.5,19z M1,9.9
	h2.9c0.3-3.5,1.7-6.4,3.7-7.6C4.1,3.2,1.4,6.2,1,9.9z M8.8,2.7c-2.1,0.7-3.7,3.6-4,7.2h4V2.7z M8.8,10.8H4.8c0,0.1,0,0.2,0,0.3
	c0,4.2,1.8,7.6,4.1,8.4V10.8z M9.7,9.9h4.9c-0.3-4.1-2.4-7.3-4.9-7.3V9.9z M11.9,2.3c2,1.2,3.4,4.1,3.7,7.6h2.9
	C18.1,6.2,15.4,3.2,11.9,2.3z"/>
</svg>
