<svg id="Layer_1" data-name="Layer 1" xmlns="http://www.w3.org/2000/svg" viewBox="0 0 19.22 24"><defs></defs><title>albums</title><path  d="M21.21,24H2.79a0.38,0.38,0,0,1-.4-0.4V5.2a0.38,0.38,0,0,1,.4-0.4h0.8v-2A0.38,0.38,0,0,1,4,2.4h0.8v-2A0.38,0.38,0,0,1,5.19,0H18.81a0.38,0.38,0,0,1,.4.4v2H20a0.38,0.38,0,0,1,.4.4v2h0.8a0.38,0.38,0,0,1,.4.4V23.6A0.38,0.38,0,0,1,21.21,24ZM18.41,0.8H5.59V2.4H18.41V0.8Zm1.2,2.4H4.39V4.8H19.61V3.2Zm1.2,2.4H3.19V23.2H20.81V5.6ZM14.8,18a2.22,2.22,0,0,1-2.4-2,2.22,2.22,0,0,1,2.4-2,2.69,2.69,0,0,1,1.6.51V11.68L10,12.75V18a2.22,2.22,0,0,1-2.4,2,2.22,2.22,0,0,1-2.4-2,2.22,2.22,0,0,1,2.4-2,2.69,2.69,0,0,1,1.6.51V10.4A0.43,0.43,0,0,1,9.52,10l7.21-1.2a0.43,0.43,0,0,1,.32.08,0.49,0.49,0,0,1,.16.32V16A2.22,2.22,0,0,1,14.8,18ZM7.6,16.8A1.43,1.43,0,0,0,6,18a1.43,1.43,0,0,0,1.6,1.2A1.43,1.43,0,0,0,9.2,18,1.43,1.43,0,0,0,7.6,16.8ZM16.4,9.64L10,10.72v1.2l6.41-1.08V9.64ZM14.8,14.8A1.43,1.43,0,0,0,13.2,16a1.43,1.43,0,0,0,1.6,1.2A1.43,1.43,0,0,0,16.4,16,1.43,1.43,0,0,0,14.8,14.8Z" transform="translate(-2.39)"/></svg>