<svg xmlns="http://www.w3.org/2000/svg" viewBox="0 0 24.02 24.01"><title>artists</title><path d="M20.5,3.51A12,12,0,0,0,.71,16.08a0.49,0.49,0,1,0,.92-0.33A11,11,0,1,1,20,19.6l-0.07.07-0.13.13a11,11,0,0,1-15.6,0l-0.07-.07s0-.09,0-0.13,0-.2,0-0.29,0-.07,0-0.1,0-.13,0-0.19V18.91c0-.06,0-0.12,0-0.17l0-.12,0-.16,0-.12,0-.16,0-.13,0-.16,0-.13,0-.15,0-.13,0-.15,0-.12,0-.15,0-.12,0.05-.14,0-.12,0.06-.14,0.05-.12,0.06-.14,0.06-.12L5,16l0.06-.11,0.07-.13,0.06-.11,0.08-.13,0.07-.11,0.08-.13,0.07-.11,0.09-.13,0.07-.1,0.09-.12,0.08-.1,0.1-.12L6,14.51l0.1-.12,0.08-.09,0.11-.11,0.09-.09L6.5,14l0.09-.09,0.12-.11L6.8,13.7l0.12-.11L7,13.52l0.13-.1,0.09-.07,0.14-.1,0.09-.07,0.16-.11L7.71,13l0.21-.13,0,0,0.25-.14,0.09,0,0.17-.09,0.11-.05,0.14-.07a4.76,4.76,0,0,0,6.59,0,8,8,0,0,1,3.91,4A0.49,0.49,0,1,0,20.11,16,8.81,8.81,0,0,0,16,11.69,4.77,4.77,0,0,0,12,4.23a0.49,0.49,0,1,0,0,1,3.79,3.79,0,0,1,2.82,6.34h0a3.78,3.78,0,0,1-5.64,0h0a3.79,3.79,0,0,1,.15-5.24,0.49,0.49,0,0,0-.69-0.7,4.77,4.77,0,0,0-.59,6.07H8l-0.11.06-0.17.09-0.12.07L7.48,12l-0.12.07-0.15.09-0.12.08-0.14.1-0.12.08-0.14.1-0.12.09-0.13.11-0.11.09-0.13.11L6.08,13,6,13.14l-0.11.1-0.12.12-0.1.1-0.12.12-0.1.11-0.11.13-0.09.11-0.11.14L5,14.17l-0.12.15-0.07.1-0.14.2,0,0.05-0.17.26L4.43,15l-0.1.18-0.06.11-0.09.16-0.06.12L4,15.76,4,15.89,3.9,16l-0.06.13-0.07.16-0.05.13-0.06.16,0,0.14-0.05.16,0,0.14,0,0.17,0,0.14,0,0.17,0,0.14,0,0.17,0,0.14,0,0.18,0,0.14,0,0.18,0,0.14c0,0.06,0,.13,0,0.19V19c0,0.07,0,.14,0,0.22s0,0.07,0,.11,0,0.22,0,.33,0,0.23,0,.35a0.5,0.5,0,0,0,0,.08h0l0,0.08h0l0,0.07h0l0,0.06h0l0.06,0.07L3.52,20.5a12,12,0,0,0,17,0l0.15-.15,0.06-.07A12,12,0,0,0,20.5,3.51Z" transform="translate(0 0)" /></svg>