<?xml version="1.0" encoding="utf-8"?>
<!-- Generator: Adobe Illustrator 19.2.0, SVG Export Plug-In . SVG Version: 6.00 Build 0)  -->
<svg version="1.1" id="Layer_1" xmlns="http://www.w3.org/2000/svg" xmlns:xlink="http://www.w3.org/1999/xlink" x="0px" y="0px"
	 viewBox="0 0 24 24" style="enable-background:new 0 0 24 24;" xml:space="preserve">
<style type="text/css">
	.st0{fill:#FFFFFF;}
</style>
<path class="st0" d="M19.1,17.3c-0.3,0.4-0.8,0.7-1.4,0.7c-1,0-1.8-0.7-1.8-1.5v-6l0,0l0,0c0-0.8,0.8-1.5,1.8-1.5c0.1,0,0.2,0,0.3,0
	c-0.7-3.5-3.6-6.1-7.1-6.1S4.6,5.4,3.9,9C4,9,4.1,9,4.3,9C5.2,9,6,9.6,6,10.5l0,0l0,0v6C6,17.3,5.2,18,4.3,18c-0.2,0-0.3,0-0.5-0.1
	v5.7c0,0.2-0.2,0.4-0.4,0.4S3,23.8,3,23.6v-6.1c-0.1-0.1-0.1-0.1-0.2-0.2C1.1,17.1,0,15.6,0,13.5c0-1.2,0.3-2.2,0.9-2.8l0,0
	c0-6,4.4-10.6,10-10.6s10,4.6,10,10.5c0.6,0.7,1,1.7,1,2.9C22,15.6,20.9,17.1,19.1,17.3z M17.7,10c-0.4,0-0.7,0.2-0.7,0.5l0,0l0,0v6
	c0,0.3,0.3,0.5,0.7,0.5c0.4,0,0.7-0.2,0.7-0.5l0,0v-5.9l0,0l0,0C18.4,10.2,18.1,10,17.7,10z M5,16.5v-6l0,0l0,0
	C5,10.2,4.7,10,4.3,10c-0.4,0-0.7,0.2-0.7,0.5l0,0l0,0v5.9l0,0c0,0.3,0.3,0.5,0.7,0.5S5,16.8,5,16.5z M1,13.5c0,0.6,0.1,2.2,1.5,2.8
	v-5.5C1.1,11.2,1,12.9,1,13.5z M10.9,1C6.1,1,2.3,4.8,2,9.8c0.3-0.1,0.6-0.2,0.9-0.3c0,0,0.1,0,0.1-0.1c0.6-4.2,3.9-7.2,7.9-7.2
	s7.3,3.1,7.9,7.2c0.1,0.1,0.2,0.2,0.3,0.3c0.3,0,0.5,0.1,0.8,0.2C19.5,4.8,15.7,1,10.9,1z M19.5,10.7v5.5c1.4-0.5,1.5-2.2,1.5-2.8
	C20.9,12.9,20.8,11.2,19.5,10.7z"/>
</svg>
