<svg id="_1" data-name="1" xmlns="http://www.w3.org/2000/svg" viewBox="0 0 688.77 113.82"><defs><style>.cls-1,.cls-2{fill:#FFF;fill-rule:evenodd;}.cls-2{opacity:0.17;}</style></defs><title>logol</title><path class="cls-1" d="M254.42,224.89l8.15,5.17-2.78-1.76h-5.37v-3.41h0Zm9,5.69L275.12,238l-0.36-.23H254.42v-7.23h9Zm11.74,9.52v7.24h-20.7V240.1h20.7Zm0,9.51v7.24h-20.7v-7.24h20.7Zm0,9.52v7.23h-20.7v-7.23h20.7Zm0,9.51V281.1h-20.7V268.64h20.7Z" transform="translate(-90.4 -170)"/><path class="cls-1" d="M509.41,214.14l7,4.44h-7v-4.44h0Zm11.66,7.4,15.29,9.71-0.47-.3H509.41v-9.41h11.66Zm15.29,12.39v9.42H509.41v-9.42h26.95Zm0,12.38v9.43H509.41v-9.43h26.95Zm0,12.39v9.41H509.41V258.7h26.95Zm0,12.38v12.73l-26.95-1.39V271.09h26.95Z" transform="translate(-90.4 -170)"/><path class="cls-1" d="M143.67,213.54l9.45,5.25h-9.45v-5.25h0Zm13.54,7.52,13,7.24H143.67v-7.24h13.54ZM171,230.58v7.23H143.67v-7.23H171Zm0,9.52v7.24H143.67V240.1H171Zm0,9.51v7.24H143.67v-7.24H171Zm0,9.52v7.23H143.67v-7.23H171Zm0,9.51v9.76H143.67v-9.76H171Z" transform="translate(-90.4 -170)"/><path class="cls-1" d="M136.46,183.48L96.8,205.72v3.34h39.66V183.48h0ZM96.8,211.35v7.44h39.66v-7.44H96.8Zm0,9.71v7.24h39.66v-7.24H96.8Zm0,9.52v7.23h39.66v-7.23H96.8Zm0,9.52v7.24h39.66V240.1H96.8Zm0,9.51v7.24h39.66v-7.24H96.8Zm0,9.52v7.23h39.66v-7.23H96.8Zm0,9.51v10h39.66v-10H96.8Z" transform="translate(-90.4 -170)"/><path class="cls-1" d="M247.35,211.35v9.71h-30v7.24h30v-9.51h-30v-7.44h30Zm0,19.23v7.23h-30v-7.23h30Zm0,9.52v7.24h-30V240.1h30Zm0,9.51v7.24h-30v-7.24h30Zm0,9.52v7.23h-30v-7.23h30Zm0,9.51V278.7h-30V268.64h30Z" transform="translate(-90.4 -170)"/><path class="cls-1" d="M328.2,175.63l54.62,0V180H328.2v-4.37h0Zm54.62,6.64v7.24H328.2v-7.24h54.62Zm0,9.52V199H328.2v-7.23h54.62Zm0,9.51v7.76H328.2V201.3h54.62Zm0,10v7.44H328.2v-7.44h54.62Zm0,9.71v7.24H328.2v-7.24h54.62Zm0,9.52v7.23H328.2v-7.23h54.62Zm0,9.52v7.24H328.2V240.1h54.62Zm0,9.51v7.24H328.2v-7.24h54.62Zm0,9.52v7.23H328.2v-7.23h54.62Zm0,9.51v14.83H328.2V268.64h54.62ZM467,216.21l-3.78,2.58H467v-2.58h0Zm-7.11,4.86-10.6,7.24h17.73v2.28H446l-0.57.39v6.84h21.64v2.29H445.45v7.24H467.1v2.27H445.46v7.24h21.64v2.28H445.48v7.23h21.64v2.28H445.5l0,10.48,21.64-.06-0.11-59v1h-7.12Zm-16.19-14.22-3.07,2.23h3.05v-2.23h0Zm-5.87,4.26L421,223.37l0,4.93h22.68l0-7.24H424.15l3.13-2.27h16.39l0-7.44-5.85-.25h0Zm-16.93,17.8,0,8.91h22.67l0-7.23H420.93V228.9h0ZM420.88,239l0,8.37h22.67l0-7.24H420.88V239h0Zm-0.05,9.46,0,8.42h22.67l0-7.24-22.66-1.18h0Zm-0.05,9.84-0.11,19.88,22.66,0.19,0.06-9.71H420.72v-2.28H443.4l0-7.23H420.77v-0.85h0Zm-1.87-70.34-2.16,1.58h2.16v-1.58h0Zm-5.27,3.86L403.77,199h15.14v-7.23h-5.27Zm-13,9.51-10.39,7.61v0.15h28.65V201.3H400.65Zm-10.39,10v7.44h28.65v-7.44H390.26Zm0,9.71v7.24h28.65v-7.24H390.26Zm0,9.52v7.23h28.65v-7.23H390.26Zm0,9.52v7.24h28.65V240.1H390.26Zm0,9.51v7.24h28.65v-7.24H390.26Zm0,9.52v7.23h28.65v-7.23H390.26Zm0,9.51v9h28.65v-9H390.26Z" transform="translate(-90.4 -170)"/><path class="cls-1" d="M281.74,262.36H318.1v15.56H281.74V262.36h0Zm21,6v4.79h11.89v-4.79H302.77Zm-5.42,0H285.48v4.77h11.88V268.4Z" transform="translate(-90.4 -170)"/><polygon class="cls-1" points="202.06 92.36 194.7 92.36 202.16 87.75 202.06 92.36"/><polygon class="cls-1" points="212.15 92.36 204.78 92.36 212.24 87.75 212.15 92.36"/><polygon class="cls-1" points="223.7 92.36 216.33 92.36 223.79 87.75 223.7 92.36"/><path class="cls-2" d="M486.15,275.33h0Z" transform="translate(-90.4 -170)"/><polygon class="cls-1" points="688.77 113.82 0.22 113.81 0 106.38 688.74 106.38 688.77 113.82"/><path class="cls-1" d="M374.49,171l0.76-1Z" transform="translate(-90.4 -170)"/><polygon class="cls-1" points="90.59 98.07 104.45 85.33 104.45 79.32 84.09 98.07 90.59 98.07"/><polygon class="cls-1" points="89.89 92.75 94.97 87.99 94.97 85.1 89.89 85.1 89.89 92.75"/><polygon class="cls-1" points="118.32 98.07 104.45 85.33 104.45 79.32 124.81 98.07 118.32 98.07"/><polygon class="cls-1" points="89.85 94.36 94.94 87.67 94.94 83.59 89.85 83.59 89.85 94.36"/><polygon class="cls-1" points="118.32 98.07 104.45 85.33 104.45 79.32 124.81 98.07 118.32 98.07"/><polygon class="cls-1" points="90.56 110.03 118.32 110.03 118.32 92.29 103.93 84.3 90.56 92.29 90.56 110.03"/><path class="cls-1" d="M466.88,265.75l4.47,0c0.05,7.75.08,13.21,0.08,13.21a1.88,1.88,0,0,0,1.73,1.91c4.49,0,8.76.08,13,.08h0.13c4.22,0,8.49,0,13-.08a1.9,1.9,0,0,0,1.73-1.91s0-5.46.08-13.21l4.44,0-19.23-18.11v0a0.11,0.11,0,0,0-.07,0,0.1,0.1,0,0,0-.06,0v0l-19.26,18.11h0Zm19.4,11.62h-0.13a53.61,53.61,0,0,1-9.87-.22c-0.77-.18-0.42-1.87-0.47-2.6-0.09-3.67,0-7.32,0-11l10.39-11,10.4,11c0,3.67.07,7.33,0,11-0.05.73,0.28,2.41-.48,2.6A53.66,53.66,0,0,1,486.27,277.37Z" transform="translate(-90.4 -170)"/></svg>