<?xml version="1.0" encoding="utf-8"?>
<!-- Generator: Adobe Illustrator 22.0.0, SVG Export Plug-In . SVG Version: 6.00 Build 0)  -->
<svg version="1.1" id="Layer_1" xmlns="http://www.w3.org/2000/svg" xmlns:xlink="http://www.w3.org/1999/xlink" x="0px" y="0px"
	 viewBox="0 0 65 65" style="enable-background:new 0 0 65 65;" xml:space="preserve">
<style type="text/css">
	.st0{fill:#FFFFFF;}
</style>
<path class="st0" d="M54.5,0c-0.8,0-1.5,0.7-1.5,1.5v28L13.3,0.3c-0.7-0.5-1.6-0.3-2,0.4C11.1,0.9,11,1.2,11,1.6v61.9
	c0,0.9,0.7,1.5,1.5,1.5c0.3,0,0.6-0.1,0.8-0.3l39.8-29.3v28c0,0.9,0.6,1.5,1.5,1.5c0.8,0,1.5-0.7,1.5-1.5V1.6C56,0.7,55.4,0,54.5,0z
	"/>
</svg>
