<?xml version="1.0" encoding="utf-8"?>
<!-- Generator: Adobe Illustrator 19.2.0, SVG Export Plug-In . SVG Version: 6.00 Build 0)  -->
<svg version="1.1" id="Layer_1" xmlns="http://www.w3.org/2000/svg" xmlns:xlink="http://www.w3.org/1999/xlink" x="0px" y="0px"
	 viewBox="0 0 65 65" style="enable-background:new 0 0 65 65;" xml:space="preserve">
<style type="text/css">
	.st0{fill:#FFFFFF;}
</style>
<path class="st0" d="M32.5,65C14.5,65,0,50.5,0,32.5C0,14.5,14.5,0,32.5,0C50.4,0,65,14.5,65,32.5C65,50.5,50.4,65,32.5,65z
	 M32.5,5.4C17.5,5.4,5.4,17.6,5.4,32.5c0,15,12.1,27.1,27.1,27.1c14.9,0,27.1-12.1,27.1-27.1C59.5,17.6,47.4,5.4,32.5,5.4z
	 M43.2,33.9l-13.5,9.8c-0.3,0.2-0.6,0.3-1,0.3c-0.3,0-0.5-0.1-0.7-0.2c-0.5-0.3-0.9-0.8-0.9-1.4V22.7c0-0.6,0.3-1.2,0.9-1.4
	c0.5-0.3,1.2-0.2,1.7,0.1l13.5,9.8c0.4,0.3,0.7,0.8,0.7,1.3C43.9,33.1,43.6,33.5,43.2,33.9z"/>
</svg>
