<svg xmlns="http://www.w3.org/2000/svg" viewBox="0 0 512 512"><path d="M290.8 34.8C168.8 34.8 69.6 134 69.6 256v.7l-43.8-65.9c-4.3-6.5-13.1-8.3-19.5-4s-8.3 13.1-4 19.5L65.9 302c2.3 3.4 6 5.6 10 6.2.6.1 1.1.1 1.8.1 3.4 0 6.8-1.3 9.4-3.7l88.3-79.5c5.7-5.2 6.3-14.1 1-20-5.2-5.7-14.1-6.3-20-1l-58.6 53v-1c0-106.5 86.5-193 192.9-193s193 86.5 193 193-86.5 193-192.9 193c-51.5 0-100-20.1-136.4-56.5-5.5-5.5-14.4-5.5-20 0-5.5 5.5-5.5 14.4 0 20 41.8 41.8 97.3 64.8 156.3 64.8 122-.2 221.3-99.3 221.3-221.4S412.7 34.8 290.8 34.8z" fill="#dcdcdc"/></svg>