<?xml version="1.0" standalone="no"?>
<!DOCTYPE svg PUBLIC "-//W3C//DTD SVG 20010904//EN"
 "http://www.w3.org/TR/2001/REC-SVG-20010904/DTD/svg10.dtd">
<svg version="1.0" xmlns="http://www.w3.org/2000/svg"
 width="4346.000000pt" height="4346.000000pt" viewBox="0 0 4346.000000 4346.000000"
 preserveAspectRatio="xMidYMid meet">
<metadata>
Created by potrace 1.11, written by Peter Selinger 2001-2013
</metadata>
<g transform="translate(0.000000,4346.000000) scale(0.100000,-0.100000)"
fill="#000000" stroke="none">
<path d="M14315 32009 c-1067 -483 -2109 -956 -2315 -1049 l-375 -170 0 -9125
0 -9125 525 0 525 0 -3 5402 -2 5403 789 384 790 384 242 604 c133 332 240
606 237 608 -2 2 -435 -183 -963 -411 -528 -229 -990 -428 -1028 -444 l-67
-29 2 531 3 531 820 383 c532 249 822 389 827 401 22 56 408 1257 406 1263 -2
3 -118 -47 -258 -113 -140 -65 -600 -280 -1022 -478 -422 -197 -770 -359 -773
-359 -3 0 -4 223 -3 495 l3 495 785 381 c432 210 786 382 788 384 1 1 79 240
173 531 94 291 188 582 209 646 l38 117 -27 -13 c-14 -8 -339 -162 -721 -344
-382 -181 -818 -389 -969 -461 -151 -72 -276 -131 -278 -131 -2 0 -3 312 -3
693 l0 692 1655 750 c911 413 1660 752 1665 753 7 2 10 -2388 10 -6678 0
-3675 4 -6680 8 -6678 4 2 225 178 490 392 l482 388 0 6225 c0 4976 3 6224 13
6220 6 -3 815 -314 1797 -692 982 -379 2084 -803 2450 -944 l665 -257 3 -1466
2 -1467 540 392 539 392 1 215 c0 418 -31 2675 -38 2681 -4 3 -1150 446 -2547
984 -1397 538 -2895 1115 -3330 1282 -434 168 -797 307 -805 309 -8 1 -888
-393 -1955 -877z"/>
<path d="M19815 29366 c-170 -62 -383 -138 -472 -170 l-163 -58 0 -252 c0
-138 -3 -322 -7 -408 l-6 -156 -62 0 c-49 1 -75 -4 -118 -26 -100 -49 -151
-131 -151 -246 -1 -65 3 -82 29 -128 48 -88 144 -140 236 -129 93 11 165 63
208 148 l31 62 0 412 c0 326 3 415 13 423 10 9 509 190 595 216 l22 7 0 -243
0 -244 -59 4 c-113 8 -209 -46 -265 -147 -68 -126 -33 -270 85 -351 42 -28 60
-34 124 -38 69 -4 80 -2 140 27 73 36 127 97 147 165 8 28 11 145 10 381 -3
431 -13 865 -21 864 -3 0 -145 -51 -316 -113z"/>
<path d="M24473 26392 l-2523 -997 0 -1505 0 -1505 483 -283 482 -283 5 1442
5 1442 220 87 c1226 486 3265 1290 3269 1290 3 0 6 -1639 6 -3642 l1 -3643
487 -393 487 -393 3 4031 c1 2501 6 4030 11 4028 6 -2 793 -399 1750 -883
l1740 -880 1 -528 0 -527 -67 34 c-38 19 -444 233 -903 475 l-835 441 -223
-446 c-123 -245 -222 -448 -220 -449 3 -4 1745 -923 2091 -1104 l157 -83 0
-548 0 -548 -122 55 c-583 262 -1711 763 -1713 761 -11 -12 -384 -911 -381
-917 3 -4 502 -229 1110 -501 l1106 -495 0 -3587 0 -3588 490 0 490 0 -2 6091
-3 6091 -2425 1225 c-1334 674 -2432 1227 -2440 1229 -8 2 -1150 -445 -2537
-994z"/>
<path d="M25090 24906 c-140 -51 -353 -128 -472 -171 l-218 -78 0 -411 0 -411
-72 0 c-58 0 -83 -5 -121 -25 -94 -47 -148 -137 -149 -244 -1 -150 105 -261
247 -260 102 1 183 55 238 158 21 40 22 52 27 470 l5 428 35 14 c79 30 575
204 582 204 4 0 8 -109 8 -242 l0 -243 -78 0 c-66 -1 -85 -5 -131 -30 -130
-71 -182 -211 -130 -349 37 -100 141 -166 259 -166 67 0 161 49 205 107 65 86
66 91 60 633 -7 569 -12 710 -28 709 -7 0 -127 -42 -267 -93z"/>
<path d="M21375 21422 c-231 -208 -1465 -1314 -2743 -2460 l-2322 -2083 0
-2584 0 -2585 -5440 0 -5440 0 0 -540 0 -540 4973 0 c2736 0 5420 3 5965 7
l992 6 1 2876 0 2876 2219 1990 c1221 1094 2224 1991 2229 1993 5 2 790 -669
1743 -1490 953 -821 1998 -1720 2320 -1998 l588 -505 0 -2871 0 -2871 728 -6
c400 -4 3005 -7 5790 -7 l5062 0 0 540 0 540 -5265 0 -5265 0 0 2589 0 2588
-1027 884 c-2890 2486 -4669 4015 -4678 4021 -6 3 -199 -163 -430 -370z"/>
<path d="M21700 17494 c-19 -2 -82 -9 -140 -15 -126 -13 -355 -59 -505 -100
-1058 -295 -1927 -1126 -2296 -2199 -68 -195 -132 -479 -165 -730 -23 -168
-26 -628 -6 -790 49 -399 141 -738 288 -1069 156 -352 391 -705 660 -990 272
-289 706 -594 1074 -754 557 -242 1111 -327 1710 -261 641 71 1248 332 1751
751 371 310 658 673 873 1103 207 414 315 785 361 1240 20 195 16 625 -9 800
-77 560 -254 1039 -550 1490 -490 744 -1220 1255 -2071 1450 -255 58 -373 71
-670 75 -148 2 -286 1 -305 -1z m1474 -729 c251 -58 526 -212 770 -430 284
-254 527 -640 621 -987 32 -116 65 -273 56 -261 -4 4 -31 62 -61 128 -176 398
-395 721 -674 999 -190 188 -441 374 -683 506 -59 33 -105 60 -101 60 4 0 36
-7 72 -15z m41 -417 c496 -162 917 -573 1024 -1000 18 -71 43 -256 36 -266 -1
-1 -10 19 -20 45 -106 289 -234 485 -461 710 -155 153 -310 275 -549 432 -93
62 -172 115 -175 117 -8 9 48 -6 145 -38z m-100 -320 c163 -54 303 -139 435
-265 183 -174 289 -385 306 -613 l6 -75 -70 138 c-156 304 -349 513 -715 771
-112 78 -112 78 -67 71 25 -4 72 -16 105 -27z m-1090 -1148 c208 -23 373 -106
517 -259 154 -162 230 -359 230 -591 -1 -284 -133 -545 -354 -697 -93 -64
-133 -84 -238 -118 -76 -25 -100 -28 -225 -29 -118 -1 -152 3 -220 22 -243 71
-446 247 -548 477 -78 178 -91 392 -37 593 52 191 203 388 378 491 88 53 221
98 320 110 42 4 79 9 82 10 3 0 46 -4 95 -9z m-1923 -2234 c191 -179 345 -280
569 -372 l134 -55 -125 4 c-107 4 -139 9 -220 36 -52 18 -124 48 -159 67 -222
122 -421 357 -511 603 -17 45 -30 86 -30 91 0 6 56 -57 125 -139 68 -81 166
-188 217 -235z m-558 95 c264 -331 538 -571 805 -706 76 -38 322 -125 354
-125 11 0 15 -4 11 -11 -12 -19 -215 -3 -328 25 -414 106 -817 495 -1006 971
-37 92 -37 100 -2 55 15 -19 90 -113 166 -209z m-288 -181 c45 -60 127 -160
214 -258 131 -150 426 -388 635 -514 192 -115 371 -198 635 -294 l145 -53 -65
5 c-321 28 -656 144 -925 321 -361 238 -665 609 -790 963 -13 36 -26 74 -30
85 -4 11 26 -30 66 -90 41 -61 92 -135 115 -165z"/>
</g>
</svg>
