<svg version="1.1"  xmlns="http://www.w3.org/2000/svg" xmlns:xlink="http://www.w3.org/1999/xlink" x="0px" y="0px"
	 viewBox="0 0 24 24" style="enable-background:new 0 0 24 24;" xml:space="preserve">

<path  d="M22.8,5.3V0.7c0-0.2-0.1-0.4-0.3-0.5C22.4,0,22.2,0,22,0L8.2,4.4C7.9,4.5,7.8,4.7,7.8,5v4.6v0v8.8
	C7,18,6.1,17.7,5.1,17.7c-1,0-2,0.3-2.7,0.9c-0.8,0.6-1.2,1.4-1.2,2.3c0,0.9,0.4,1.7,1.2,2.3C3.2,23.7,4.1,24,5.1,24
	c1,0,2-0.3,2.7-0.9c0.8-0.6,1.2-1.4,1.2-2.3V10.1l12.4-3.9v7.9c-0.7-0.5-1.6-0.8-2.6-0.8c-1,0-2,0.3-2.7,0.9
	c-0.8,0.6-1.2,1.4-1.2,2.3c0,0.9,0.4,1.7,1.2,2.3c0.7,0.6,1.7,0.9,2.7,0.9s2-0.3,2.7-0.9c0.8-0.6,1.2-1.4,1.2-2.3V5.3
	C22.8,5.3,22.8,5.3,22.8,5.3z M5.1,22.6c-1.4,0-2.6-0.8-2.6-1.8c0-1,1.2-1.8,2.6-1.8c1.4,0,2.6,0.8,2.6,1.8
	C7.8,21.8,6.6,22.6,5.1,22.6z M9.1,8.7V5.5l12.4-3.9v3.2L9.1,8.7z M18.9,18.3c-1.4,0-2.6-0.8-2.6-1.8c0-1,1.2-1.8,2.6-1.8
	c1.4,0,2.6,0.8,2.6,1.8C21.5,17.4,20.3,18.3,18.9,18.3z"/>
</svg>
